<svg id="Layer_1" xmlns="http://www.w3.org/2000/svg" viewBox="0 0 960 560"><style>.st0{fill:#FFFFFF;}</style><ellipse class="st0" cx="207.1" cy="243.5" rx="85.3" ry="92"/><path d="M207.1 339.5c-49.2 0-89.3-43-89.3-95.9s40.1-95.9 89.3-95.9 89.3 43 89.3 95.9-40.1 95.9-89.3 95.9zm0-184c-44.8 0-81.3 39.5-81.3 88s36.5 88 81.3 88 81.3-39.5 81.3-88-36.5-88-81.3-88z"/><ellipse class="st0" cx="171.1" cy="215.7" rx="18" ry="17.8"/><path d="M171.1 237.5c-12.1 0-22-9.7-22-21.7s9.9-21.7 22-21.7 22 9.7 22 21.7c0 11.9-9.9 21.7-22 21.7zm0-35.6c-7.7 0-14 6.2-14 13.8 0 7.6 6.3 13.8 14 13.8s14-6.2 14-13.8c0-7.6-6.3-13.8-14-13.8z"/><ellipse class="st0" cx="238.4" cy="228.9" rx="21.1" ry="23.2"/><path d="M238.4 256c-13.9 0-25.1-12.2-25.1-27.1s11.3-27.1 25.1-27.1c13.9 0 25.1 12.2 25.1 27.1S252.2 256 238.4 256zm0-46.4c-9.4 0-17.1 8.6-17.1 19.2S229 248 238.4 248s17.1-8.6 17.1-19.2-7.7-19.2-17.1-19.2z"/><g><path class="st0" d="M201.5 262.8l-6-7.4-9.3 1.8 5-9.1-3.7-9.2 9.1 1.8 7-7.5.6 10.3 8.1 4.5-8.7 4.6z"/><path d="M203.1 269.3l-8.7-10.7-13.6 2.6 7.2-13.3-5.1-12.7 12.7 2.4 10.5-11.1.9 15.2 11.2 6.3-12.1 6.4-3 14.9zm-6.5-17l3.3 4 1.1-5.6 5.3-2.8-4.8-2.7-.3-5.2-3.6 3.8-5.5-1 2.2 5.5-2.8 5 5.1-1z"/></g><g><ellipse class="st0" cx="199.1" cy="297.7" rx="48.4" ry="11.4"/><path d="M199.1 313.1c-5.4 0-52.4-.4-52.4-15.4s47-15.4 52.4-15.4 52.4.4 52.4 15.4c0 14.9-47 15.4-52.4 15.4zM155 297.7c2.8 2.9 18.7 7.5 44.1 7.5s41.4-4.6 44.1-7.5c-2.8-2.9-18.7-7.5-44.1-7.5s-41.4 4.6-44.1 7.5z"/></g></svg>